<mxfile host="app.diagrams.net" agent="Mozilla/5.0 (Macintosh; Intel Mac OS X 10_15_7) AppleWebKit/537.36 (KHTML, like Gecko) Chrome/130.0.0.0 Safari/537.36" version="25.0.1">
  <diagram name="Page-1" id="Fo46UW_Xf3uCBvevrTA-">
    <mxGraphModel dx="1194" dy="789" grid="1" gridSize="10" guides="1" tooltips="1" connect="1" arrows="1" fold="1" page="1" pageScale="1" pageWidth="850" pageHeight="1100" math="0" shadow="0">
      <root>
        <mxCell id="0" />
        <mxCell id="1" parent="0" />
        <mxCell id="AsIQZ49urG--46RWY30z-1" value="" style="whiteSpace=wrap;html=1;aspect=fixed;" parent="1" vertex="1">
          <mxGeometry x="210" y="100" width="410" height="410" as="geometry" />
        </mxCell>
        <mxCell id="AsIQZ49urG--46RWY30z-2" value="Logical Gate Logo" style="rounded=0;whiteSpace=wrap;html=1;" parent="1" vertex="1">
          <mxGeometry x="285" y="130" width="250" height="80" as="geometry" />
        </mxCell>
        <mxCell id="AsIQZ49urG--46RWY30z-3" value="Quit" style="rounded=1;whiteSpace=wrap;html=1;" parent="1" vertex="1">
          <mxGeometry x="350" y="380" width="120" height="60" as="geometry" />
        </mxCell>
        <mxCell id="AsIQZ49urG--46RWY30z-4" value="Play Game" style="rounded=1;whiteSpace=wrap;html=1;" parent="1" vertex="1">
          <mxGeometry x="350" y="240" width="120" height="60" as="geometry" />
        </mxCell>
        <mxCell id="AsIQZ49urG--46RWY30z-10" value="Title Screen" style="text;html=1;align=center;verticalAlign=middle;whiteSpace=wrap;rounded=0;" parent="1" vertex="1">
          <mxGeometry x="110" y="60" width="140" height="30" as="geometry" />
        </mxCell>
        <mxCell id="AsIQZ49urG--46RWY30z-11" value="Pause Game Menu" style="text;html=1;align=center;verticalAlign=middle;whiteSpace=wrap;rounded=0;" parent="1" vertex="1">
          <mxGeometry x="85" y="1100" width="120" height="30" as="geometry" />
        </mxCell>
        <mxCell id="AsIQZ49urG--46RWY30z-13" value="" style="whiteSpace=wrap;html=1;aspect=fixed;" parent="1" vertex="1">
          <mxGeometry x="180" y="1150" width="440" height="440" as="geometry" />
        </mxCell>
        <mxCell id="AsIQZ49urG--46RWY30z-14" value="" style="rounded=0;whiteSpace=wrap;html=1;" parent="1" vertex="1">
          <mxGeometry x="35" y="2300" width="760" height="520" as="geometry" />
        </mxCell>
        <mxCell id="AsIQZ49urG--46RWY30z-15" value="In-Game Example Level" style="text;html=1;align=center;verticalAlign=middle;whiteSpace=wrap;rounded=0;" parent="1" vertex="1">
          <mxGeometry x="45" y="2260" width="140" height="30" as="geometry" />
        </mxCell>
        <mxCell id="AsIQZ49urG--46RWY30z-16" value="Game Paused" style="rounded=0;whiteSpace=wrap;html=1;" parent="1" vertex="1">
          <mxGeometry x="290" y="1190" width="215" height="40" as="geometry" />
        </mxCell>
        <mxCell id="AsIQZ49urG--46RWY30z-17" value="Continue" style="rounded=1;whiteSpace=wrap;html=1;" parent="1" vertex="1">
          <mxGeometry x="340" y="1260" width="120" height="60" as="geometry" />
        </mxCell>
        <mxCell id="AsIQZ49urG--46RWY30z-18" value="Save &amp;amp; Quit" style="rounded=1;whiteSpace=wrap;html=1;" parent="1" vertex="1">
          <mxGeometry x="340" y="1410" width="120" height="60" as="geometry" />
        </mxCell>
        <mxCell id="AsIQZ49urG--46RWY30z-19" value="Settings" style="rounded=1;whiteSpace=wrap;html=1;" parent="1" vertex="1">
          <mxGeometry x="340" y="1335" width="120" height="60" as="geometry" />
        </mxCell>
        <mxCell id="AsIQZ49urG--46RWY30z-24" value="Settings" style="rounded=1;whiteSpace=wrap;html=1;" parent="1" vertex="1">
          <mxGeometry x="350" y="310" width="120" height="60" as="geometry" />
        </mxCell>
        <mxCell id="AsIQZ49urG--46RWY30z-25" value="" style="whiteSpace=wrap;html=1;aspect=fixed;" parent="1" vertex="1">
          <mxGeometry x="210" y="620" width="410" height="410" as="geometry" />
        </mxCell>
        <mxCell id="AsIQZ49urG--46RWY30z-26" value="Play Game Pop-up" style="text;html=1;align=center;verticalAlign=middle;whiteSpace=wrap;rounded=0;" parent="1" vertex="1">
          <mxGeometry x="100" y="580" width="120" height="30" as="geometry" />
        </mxCell>
        <mxCell id="AsIQZ49urG--46RWY30z-27" value="Continue Game" style="rounded=1;whiteSpace=wrap;html=1;" parent="1" vertex="1">
          <mxGeometry x="350" y="760" width="120" height="60" as="geometry" />
        </mxCell>
        <mxCell id="AsIQZ49urG--46RWY30z-28" value="New Game" style="rounded=1;whiteSpace=wrap;html=1;" parent="1" vertex="1">
          <mxGeometry x="350" y="680" width="120" height="60" as="geometry" />
        </mxCell>
        <mxCell id="AsIQZ49urG--46RWY30z-30" value="Character" style="shape=umlActor;verticalLabelPosition=bottom;verticalAlign=top;html=1;outlineConnect=0;" parent="1" vertex="1">
          <mxGeometry x="60" y="2790" width="20" height="30" as="geometry" />
        </mxCell>
        <mxCell id="AsIQZ49urG--46RWY30z-31" value="" style="rounded=1;whiteSpace=wrap;html=1;" parent="1" vertex="1">
          <mxGeometry x="570" y="2380" width="120" height="10" as="geometry" />
        </mxCell>
        <mxCell id="AsIQZ49urG--46RWY30z-32" value="" style="rounded=1;whiteSpace=wrap;html=1;" parent="1" vertex="1">
          <mxGeometry x="590" y="2720" width="90" height="10" as="geometry" />
        </mxCell>
        <mxCell id="AsIQZ49urG--46RWY30z-33" value="" style="rounded=1;whiteSpace=wrap;html=1;" parent="1" vertex="1">
          <mxGeometry x="35" y="2650" width="755" height="10" as="geometry" />
        </mxCell>
        <mxCell id="AsIQZ49urG--46RWY30z-34" value="" style="rounded=1;whiteSpace=wrap;html=1;" parent="1" vertex="1">
          <mxGeometry x="685" y="2650" width="65" height="10" as="geometry" />
        </mxCell>
        <mxCell id="AsIQZ49urG--46RWY30z-36" value="" style="rounded=0;whiteSpace=wrap;html=1;" parent="1" vertex="1">
          <mxGeometry x="570" y="2300" width="10" height="350" as="geometry" />
        </mxCell>
        <mxCell id="AsIQZ49urG--46RWY30z-37" value="Door" style="text;html=1;align=center;verticalAlign=middle;whiteSpace=wrap;rounded=0;" parent="1" vertex="1">
          <mxGeometry x="685" y="2620" width="60" height="30" as="geometry" />
        </mxCell>
        <mxCell id="AsIQZ49urG--46RWY30z-82" style="edgeStyle=orthogonalEdgeStyle;rounded=0;orthogonalLoop=1;jettySize=auto;html=1;entryX=0;entryY=1;entryDx=0;entryDy=0;" parent="1" source="AsIQZ49urG--46RWY30z-39" target="AsIQZ49urG--46RWY30z-64" edge="1">
          <mxGeometry relative="1" as="geometry">
            <Array as="points">
              <mxPoint x="240" y="2780" />
              <mxPoint x="405" y="2780" />
            </Array>
          </mxGeometry>
        </mxCell>
        <mxCell id="AsIQZ49urG--46RWY30z-39" value="" style="rounded=0;whiteSpace=wrap;html=1;" parent="1" vertex="1">
          <mxGeometry x="230" y="2810" width="20" height="10" as="geometry" />
        </mxCell>
        <mxCell id="AsIQZ49urG--46RWY30z-40" value="" style="rounded=0;whiteSpace=wrap;html=1;" parent="1" vertex="1">
          <mxGeometry x="530" y="2810" width="20" height="10" as="geometry" />
        </mxCell>
        <mxCell id="AsIQZ49urG--46RWY30z-41" value="" style="rounded=1;whiteSpace=wrap;html=1;" parent="1" vertex="1">
          <mxGeometry x="235" y="2750" width="130" height="10" as="geometry" />
        </mxCell>
        <mxCell id="AsIQZ49urG--46RWY30z-42" value="" style="rounded=0;whiteSpace=wrap;html=1;" parent="1" vertex="1">
          <mxGeometry x="640" y="2710" width="20" height="10" as="geometry" />
        </mxCell>
        <mxCell id="AsIQZ49urG--46RWY30z-43" value="Final Door" style="text;html=1;align=center;verticalAlign=middle;whiteSpace=wrap;rounded=0;" parent="1" vertex="1">
          <mxGeometry x="285" y="2300" width="60" height="30" as="geometry" />
        </mxCell>
        <mxCell id="AsIQZ49urG--46RWY30z-44" value="Button" style="text;html=1;align=center;verticalAlign=middle;whiteSpace=wrap;rounded=0;" parent="1" vertex="1">
          <mxGeometry x="250" y="2790" width="60" height="30" as="geometry" />
        </mxCell>
        <mxCell id="AsIQZ49urG--46RWY30z-83" style="edgeStyle=orthogonalEdgeStyle;rounded=0;orthogonalLoop=1;jettySize=auto;html=1;entryX=1;entryY=1;entryDx=0;entryDy=0;" parent="1" source="AsIQZ49urG--46RWY30z-45" target="AsIQZ49urG--46RWY30z-64" edge="1">
          <mxGeometry relative="1" as="geometry" />
        </mxCell>
        <mxCell id="AsIQZ49urG--46RWY30z-45" value="Button" style="text;html=1;align=center;verticalAlign=middle;whiteSpace=wrap;rounded=0;" parent="1" vertex="1">
          <mxGeometry x="510" y="2790" width="60" height="30" as="geometry" />
        </mxCell>
        <mxCell id="AsIQZ49urG--46RWY30z-85" style="edgeStyle=orthogonalEdgeStyle;rounded=0;orthogonalLoop=1;jettySize=auto;html=1;entryX=1;entryY=0.5;entryDx=0;entryDy=0;" parent="1" source="AsIQZ49urG--46RWY30z-46" target="AsIQZ49urG--46RWY30z-66" edge="1">
          <mxGeometry relative="1" as="geometry">
            <Array as="points">
              <mxPoint x="600" y="2715" />
              <mxPoint x="600" y="2715" />
            </Array>
          </mxGeometry>
        </mxCell>
        <mxCell id="AsIQZ49urG--46RWY30z-46" value="Button" style="text;html=1;align=center;verticalAlign=middle;whiteSpace=wrap;rounded=0;" parent="1" vertex="1">
          <mxGeometry x="620" y="2690" width="60" height="30" as="geometry" />
        </mxCell>
        <mxCell id="AsIQZ49urG--46RWY30z-89" style="edgeStyle=orthogonalEdgeStyle;rounded=0;orthogonalLoop=1;jettySize=auto;html=1;entryX=0;entryY=1;entryDx=0;entryDy=0;" parent="1" source="AsIQZ49urG--46RWY30z-47" target="AsIQZ49urG--46RWY30z-69" edge="1">
          <mxGeometry relative="1" as="geometry" />
        </mxCell>
        <mxCell id="AsIQZ49urG--46RWY30z-47" value="" style="rounded=0;whiteSpace=wrap;html=1;" parent="1" vertex="1">
          <mxGeometry x="580" y="2510" width="10" height="20" as="geometry" />
        </mxCell>
        <mxCell id="AsIQZ49urG--46RWY30z-90" style="edgeStyle=orthogonalEdgeStyle;rounded=0;orthogonalLoop=1;jettySize=auto;html=1;entryX=1;entryY=1;entryDx=0;entryDy=0;" parent="1" source="AsIQZ49urG--46RWY30z-48" target="AsIQZ49urG--46RWY30z-69" edge="1">
          <mxGeometry relative="1" as="geometry" />
        </mxCell>
        <mxCell id="AsIQZ49urG--46RWY30z-48" value="" style="rounded=0;whiteSpace=wrap;html=1;" parent="1" vertex="1">
          <mxGeometry x="785" y="2440" width="10" height="20" as="geometry" />
        </mxCell>
        <mxCell id="AsIQZ49urG--46RWY30z-49" value="" style="rounded=0;whiteSpace=wrap;html=1;" parent="1" vertex="1">
          <mxGeometry x="570" y="2320" width="10" height="60" as="geometry" />
        </mxCell>
        <mxCell id="AsIQZ49urG--46RWY30z-50" value="Door" style="text;html=1;align=center;verticalAlign=middle;whiteSpace=wrap;rounded=0;" parent="1" vertex="1">
          <mxGeometry x="545" y="2300" width="60" height="30" as="geometry" />
        </mxCell>
        <mxCell id="AsIQZ49urG--46RWY30z-51" value="" style="rounded=1;whiteSpace=wrap;html=1;" parent="1" vertex="1">
          <mxGeometry x="200" y="2460" width="50" height="10" as="geometry" />
        </mxCell>
        <mxCell id="AsIQZ49urG--46RWY30z-52" value="" style="rounded=1;whiteSpace=wrap;html=1;" parent="1" vertex="1">
          <mxGeometry x="110" y="2550" width="50" height="10" as="geometry" />
        </mxCell>
        <mxCell id="AsIQZ49urG--46RWY30z-53" value="" style="rounded=1;whiteSpace=wrap;html=1;" parent="1" vertex="1">
          <mxGeometry x="300" y="2560" width="50" height="10" as="geometry" />
        </mxCell>
        <mxCell id="AsIQZ49urG--46RWY30z-54" value="" style="rounded=1;whiteSpace=wrap;html=1;" parent="1" vertex="1">
          <mxGeometry x="420" y="2460" width="50" height="10" as="geometry" />
        </mxCell>
        <mxCell id="AsIQZ49urG--46RWY30z-58" value="" style="rounded=1;whiteSpace=wrap;html=1;" parent="1" vertex="1">
          <mxGeometry x="220" y="2360" width="130" height="10" as="geometry" />
        </mxCell>
        <mxCell id="AsIQZ49urG--46RWY30z-59" value="" style="rounded=0;whiteSpace=wrap;html=1;" parent="1" vertex="1">
          <mxGeometry x="300" y="2320" width="30" height="40" as="geometry" />
        </mxCell>
        <mxCell id="AsIQZ49urG--46RWY30z-84" style="edgeStyle=orthogonalEdgeStyle;rounded=0;orthogonalLoop=1;jettySize=auto;html=1;entryX=0;entryY=0.5;entryDx=0;entryDy=0;" parent="1" source="AsIQZ49urG--46RWY30z-64" target="AsIQZ49urG--46RWY30z-66" edge="1">
          <mxGeometry relative="1" as="geometry" />
        </mxCell>
        <mxCell id="AsIQZ49urG--46RWY30z-64" value="" style="whiteSpace=wrap;html=1;aspect=fixed;" parent="1" vertex="1">
          <mxGeometry x="405" y="2695" width="40" height="40" as="geometry" />
        </mxCell>
        <mxCell id="AsIQZ49urG--46RWY30z-103" style="edgeStyle=orthogonalEdgeStyle;rounded=0;orthogonalLoop=1;jettySize=auto;html=1;entryX=0.5;entryY=1;entryDx=0;entryDy=0;" parent="1" source="AsIQZ49urG--46RWY30z-66" target="AsIQZ49urG--46RWY30z-34" edge="1">
          <mxGeometry relative="1" as="geometry">
            <Array as="points">
              <mxPoint x="718" y="2700" />
            </Array>
          </mxGeometry>
        </mxCell>
        <mxCell id="AsIQZ49urG--46RWY30z-66" value="" style="whiteSpace=wrap;html=1;aspect=fixed;" parent="1" vertex="1">
          <mxGeometry x="490" y="2695" width="40" height="40" as="geometry" />
        </mxCell>
        <mxCell id="AsIQZ49urG--46RWY30z-67" value="AND Gate" style="text;html=1;align=center;verticalAlign=middle;whiteSpace=wrap;rounded=0;" parent="1" vertex="1">
          <mxGeometry x="395" y="2665" width="60" height="30" as="geometry" />
        </mxCell>
        <mxCell id="AsIQZ49urG--46RWY30z-68" value="XOR Gate" style="text;html=1;align=center;verticalAlign=middle;whiteSpace=wrap;rounded=0;" parent="1" vertex="1">
          <mxGeometry x="480" y="2665" width="60" height="30" as="geometry" />
        </mxCell>
        <mxCell id="AsIQZ49urG--46RWY30z-91" style="edgeStyle=orthogonalEdgeStyle;rounded=0;orthogonalLoop=1;jettySize=auto;html=1;entryX=1;entryY=0.5;entryDx=0;entryDy=0;" parent="1" source="AsIQZ49urG--46RWY30z-69" target="AsIQZ49urG--46RWY30z-49" edge="1">
          <mxGeometry relative="1" as="geometry" />
        </mxCell>
        <mxCell id="AsIQZ49urG--46RWY30z-69" value="" style="whiteSpace=wrap;html=1;aspect=fixed;" parent="1" vertex="1">
          <mxGeometry x="700" y="2330" width="40" height="40" as="geometry" />
        </mxCell>
        <mxCell id="AsIQZ49urG--46RWY30z-70" value="AND Gate" style="text;html=1;align=center;verticalAlign=middle;whiteSpace=wrap;rounded=0;" parent="1" vertex="1">
          <mxGeometry x="690" y="2300" width="60" height="30" as="geometry" />
        </mxCell>
        <mxCell id="AsIQZ49urG--46RWY30z-71" value="" style="rounded=0;whiteSpace=wrap;html=1;" parent="1" vertex="1">
          <mxGeometry x="215" y="2450" width="20" height="10" as="geometry" />
        </mxCell>
        <mxCell id="AsIQZ49urG--46RWY30z-72" value="" style="rounded=0;whiteSpace=wrap;html=1;" parent="1" vertex="1">
          <mxGeometry x="445" y="2450" width="20" height="10" as="geometry" />
        </mxCell>
        <mxCell id="AsIQZ49urG--46RWY30z-73" value="Virus" style="shape=umlActor;verticalLabelPosition=bottom;verticalAlign=top;html=1;outlineConnect=0;" parent="1" vertex="1">
          <mxGeometry x="390" y="2780" width="10" height="20" as="geometry" />
        </mxCell>
        <mxCell id="AsIQZ49urG--46RWY30z-74" value="Virus" style="shape=umlActor;verticalLabelPosition=bottom;verticalAlign=top;html=1;outlineConnect=0;" parent="1" vertex="1">
          <mxGeometry x="595" y="2610" width="10" height="20" as="geometry" />
        </mxCell>
        <mxCell id="AsIQZ49urG--46RWY30z-75" value="Virus" style="shape=umlActor;verticalLabelPosition=bottom;verticalAlign=top;html=1;outlineConnect=0;" parent="1" vertex="1">
          <mxGeometry x="130" y="2510" width="10" height="20" as="geometry" />
        </mxCell>
        <mxCell id="AsIQZ49urG--46RWY30z-76" value="Virus" style="shape=umlActor;verticalLabelPosition=bottom;verticalAlign=top;html=1;outlineConnect=0;" parent="1" vertex="1">
          <mxGeometry x="230" y="2320" width="10" height="20" as="geometry" />
        </mxCell>
        <mxCell id="AsIQZ49urG--46RWY30z-77" value="" style="rounded=0;whiteSpace=wrap;html=1;" parent="1" vertex="1">
          <mxGeometry x="110" y="2300" width="10" height="90" as="geometry" />
        </mxCell>
        <mxCell id="AsIQZ49urG--46RWY30z-100" style="edgeStyle=orthogonalEdgeStyle;rounded=0;orthogonalLoop=1;jettySize=auto;html=1;entryX=0;entryY=1;entryDx=0;entryDy=0;" parent="1" source="AsIQZ49urG--46RWY30z-78" target="AsIQZ49urG--46RWY30z-93" edge="1">
          <mxGeometry relative="1" as="geometry">
            <Array as="points">
              <mxPoint x="100" y="2305" />
              <mxPoint x="100" y="2425" />
              <mxPoint x="140" y="2425" />
            </Array>
          </mxGeometry>
        </mxCell>
        <mxCell id="AsIQZ49urG--46RWY30z-78" value="" style="rounded=0;whiteSpace=wrap;html=1;" parent="1" vertex="1">
          <mxGeometry x="65" y="2300" width="20" height="10" as="geometry" />
        </mxCell>
        <mxCell id="AsIQZ49urG--46RWY30z-79" value="Button" style="text;html=1;align=center;verticalAlign=middle;whiteSpace=wrap;rounded=0;" parent="1" vertex="1">
          <mxGeometry x="40" y="2310" width="60" height="30" as="geometry" />
        </mxCell>
        <mxCell id="AsIQZ49urG--46RWY30z-95" style="edgeStyle=orthogonalEdgeStyle;rounded=0;orthogonalLoop=1;jettySize=auto;html=1;entryX=0;entryY=1;entryDx=0;entryDy=0;" parent="1" source="AsIQZ49urG--46RWY30z-80" target="AsIQZ49urG--46RWY30z-92" edge="1">
          <mxGeometry relative="1" as="geometry">
            <Array as="points">
              <mxPoint x="340" y="2460" />
            </Array>
          </mxGeometry>
        </mxCell>
        <mxCell id="AsIQZ49urG--46RWY30z-80" value="Button" style="text;html=1;align=center;verticalAlign=middle;whiteSpace=wrap;rounded=0;" parent="1" vertex="1">
          <mxGeometry x="195" y="2430" width="60" height="30" as="geometry" />
        </mxCell>
        <mxCell id="AsIQZ49urG--46RWY30z-96" style="edgeStyle=orthogonalEdgeStyle;rounded=0;orthogonalLoop=1;jettySize=auto;html=1;entryX=1;entryY=1;entryDx=0;entryDy=0;" parent="1" source="AsIQZ49urG--46RWY30z-81" target="AsIQZ49urG--46RWY30z-92" edge="1">
          <mxGeometry relative="1" as="geometry" />
        </mxCell>
        <mxCell id="AsIQZ49urG--46RWY30z-81" value="Button" style="text;html=1;align=center;verticalAlign=middle;whiteSpace=wrap;rounded=0;" parent="1" vertex="1">
          <mxGeometry x="430" y="2430" width="60" height="30" as="geometry" />
        </mxCell>
        <mxCell id="AsIQZ49urG--46RWY30z-101" style="edgeStyle=orthogonalEdgeStyle;rounded=0;orthogonalLoop=1;jettySize=auto;html=1;entryX=1;entryY=1;entryDx=0;entryDy=0;" parent="1" source="AsIQZ49urG--46RWY30z-92" target="AsIQZ49urG--46RWY30z-93" edge="1">
          <mxGeometry relative="1" as="geometry">
            <Array as="points">
              <mxPoint x="180" y="2425" />
            </Array>
          </mxGeometry>
        </mxCell>
        <mxCell id="AsIQZ49urG--46RWY30z-92" value="" style="whiteSpace=wrap;html=1;aspect=fixed;" parent="1" vertex="1">
          <mxGeometry x="340" y="2400" width="40" height="40" as="geometry" />
        </mxCell>
        <mxCell id="AsIQZ49urG--46RWY30z-102" style="edgeStyle=orthogonalEdgeStyle;rounded=0;orthogonalLoop=1;jettySize=auto;html=1;entryX=0;entryY=0.5;entryDx=0;entryDy=0;" parent="1" source="AsIQZ49urG--46RWY30z-93" target="AsIQZ49urG--46RWY30z-59" edge="1">
          <mxGeometry relative="1" as="geometry">
            <Array as="points">
              <mxPoint x="280" y="2385" />
              <mxPoint x="280" y="2340" />
            </Array>
          </mxGeometry>
        </mxCell>
        <mxCell id="AsIQZ49urG--46RWY30z-93" value="" style="whiteSpace=wrap;html=1;aspect=fixed;" parent="1" vertex="1">
          <mxGeometry x="140" y="2365" width="40" height="40" as="geometry" />
        </mxCell>
        <mxCell id="AsIQZ49urG--46RWY30z-94" value="AND Gate" style="text;html=1;align=center;verticalAlign=middle;whiteSpace=wrap;rounded=0;" parent="1" vertex="1">
          <mxGeometry x="330" y="2380" width="60" height="30" as="geometry" />
        </mxCell>
        <mxCell id="AsIQZ49urG--46RWY30z-99" value="OR Gate" style="text;html=1;align=center;verticalAlign=middle;whiteSpace=wrap;rounded=0;" parent="1" vertex="1">
          <mxGeometry x="130" y="2340" width="60" height="30" as="geometry" />
        </mxCell>
        <mxCell id="R8lFaVOYFJ1TqsU__s-N-1" value="Settings Window" style="text;html=1;align=center;verticalAlign=middle;whiteSpace=wrap;rounded=0;" vertex="1" parent="1">
          <mxGeometry x="85" y="1640" width="120" height="30" as="geometry" />
        </mxCell>
        <mxCell id="R8lFaVOYFJ1TqsU__s-N-2" value="" style="whiteSpace=wrap;html=1;aspect=fixed;" vertex="1" parent="1">
          <mxGeometry x="180" y="1690" width="440" height="440" as="geometry" />
        </mxCell>
        <mxCell id="R8lFaVOYFJ1TqsU__s-N-5" value="Back" style="rounded=1;whiteSpace=wrap;html=1;" vertex="1" parent="1">
          <mxGeometry x="340" y="2010" width="120" height="60" as="geometry" />
        </mxCell>
        <mxCell id="R8lFaVOYFJ1TqsU__s-N-7" value="Master Volume" style="text;html=1;align=center;verticalAlign=middle;whiteSpace=wrap;rounded=0;" vertex="1" parent="1">
          <mxGeometry x="255" y="1730" width="95" height="30" as="geometry" />
        </mxCell>
        <mxCell id="R8lFaVOYFJ1TqsU__s-N-8" value="Music Volume" style="text;html=1;align=center;verticalAlign=middle;whiteSpace=wrap;rounded=0;" vertex="1" parent="1">
          <mxGeometry x="250" y="1810" width="95" height="30" as="geometry" />
        </mxCell>
        <mxCell id="R8lFaVOYFJ1TqsU__s-N-9" value="SFX Volume" style="text;html=1;align=center;verticalAlign=middle;whiteSpace=wrap;rounded=0;" vertex="1" parent="1">
          <mxGeometry x="250" y="1890" width="95" height="30" as="geometry" />
        </mxCell>
        <mxCell id="R8lFaVOYFJ1TqsU__s-N-10" value="" style="endArrow=none;html=1;rounded=0;exitX=0.068;exitY=0.159;exitDx=0;exitDy=0;exitPerimeter=0;entryX=0.523;entryY=0.159;entryDx=0;entryDy=0;entryPerimeter=0;strokeWidth=4;strokeColor=default;movable=0;resizable=0;rotatable=0;deletable=0;editable=0;locked=1;connectable=0;" edge="1" parent="1">
          <mxGeometry width="50" height="50" relative="1" as="geometry">
            <mxPoint x="294.90000000000003" y="1779.5" as="sourcePoint" />
            <mxPoint x="495.09999999999985" y="1779.5" as="targetPoint" />
          </mxGeometry>
        </mxCell>
        <mxCell id="R8lFaVOYFJ1TqsU__s-N-12" value="" style="ellipse;whiteSpace=wrap;html=1;aspect=fixed;" vertex="1" parent="1">
          <mxGeometry x="395" y="1770" width="20" height="20" as="geometry" />
        </mxCell>
        <mxCell id="R8lFaVOYFJ1TqsU__s-N-18" value="" style="endArrow=none;html=1;rounded=0;exitX=0.068;exitY=0.159;exitDx=0;exitDy=0;exitPerimeter=0;entryX=0.523;entryY=0.159;entryDx=0;entryDy=0;entryPerimeter=0;strokeWidth=4;strokeColor=default;movable=1;resizable=1;rotatable=1;deletable=1;editable=1;locked=0;connectable=1;" edge="1" parent="1">
          <mxGeometry width="50" height="50" relative="1" as="geometry">
            <mxPoint x="294.90000000000003" y="1870" as="sourcePoint" />
            <mxPoint x="495.09999999999985" y="1870" as="targetPoint" />
          </mxGeometry>
        </mxCell>
        <mxCell id="R8lFaVOYFJ1TqsU__s-N-19" value="" style="ellipse;whiteSpace=wrap;html=1;aspect=fixed;" vertex="1" parent="1">
          <mxGeometry x="379.9" y="1860" width="20" height="20" as="geometry" />
        </mxCell>
        <mxCell id="R8lFaVOYFJ1TqsU__s-N-22" value="" style="endArrow=none;html=1;rounded=0;exitX=0.068;exitY=0.159;exitDx=0;exitDy=0;exitPerimeter=0;entryX=0.523;entryY=0.159;entryDx=0;entryDy=0;entryPerimeter=0;strokeWidth=4;strokeColor=default;movable=1;resizable=1;rotatable=1;deletable=1;editable=1;locked=0;connectable=1;" edge="1" parent="1">
          <mxGeometry width="50" height="50" relative="1" as="geometry">
            <mxPoint x="297.40000000000003" y="1960" as="sourcePoint" />
            <mxPoint x="497.59999999999985" y="1960" as="targetPoint" />
          </mxGeometry>
        </mxCell>
        <mxCell id="R8lFaVOYFJ1TqsU__s-N-21" value="" style="ellipse;whiteSpace=wrap;html=1;aspect=fixed;" vertex="1" parent="1">
          <mxGeometry x="399.9" y="1950" width="20" height="20" as="geometry" />
        </mxCell>
        <mxCell id="R8lFaVOYFJ1TqsU__s-N-24" value="Back" style="rounded=1;whiteSpace=wrap;html=1;" vertex="1" parent="1">
          <mxGeometry x="350" y="840" width="120" height="60" as="geometry" />
        </mxCell>
      </root>
    </mxGraphModel>
  </diagram>
</mxfile>
